<?xml version="1.0" encoding="UTF-8"?>
<svg height="128px" viewBox="0 0 128 128" width="128px" xmlns="http://www.w3.org/2000/svg" xmlns:xlink="http://www.w3.org/1999/xlink">
    <linearGradient id="a" gradientTransform="matrix(0.232143 0 0 0.328947 -8.07164 264.322205)" gradientUnits="userSpaceOnUse" x1="88.595886" x2="536.595886" y1="-449.394012" y2="-449.394012">
        <stop offset="0" stop-color="#241f31"/>
        <stop offset="0.0384615" stop-color="#5e5c64"/>
        <stop offset="0.0768555" stop-color="#241f31"/>
        <stop offset="0.923077" stop-color="#241f31"/>
        <stop offset="0.961538" stop-color="#5e5c64"/>
        <stop offset="1" stop-color="#241f31"/>
    </linearGradient>
    <linearGradient id="b" gradientTransform="matrix(0.850575 0 0 1 8.637931 0)" gradientUnits="userSpaceOnUse" x1="20.5" x2="108.5" y1="205.5" y2="205.5">
        <stop offset="0" stop-color="#e01b24"/>
        <stop offset="0.158541" stop-color="#ff7800"/>
        <stop offset="0.302704" stop-color="#f6d32d"/>
        <stop offset="0.484391" stop-color="#33d17a"/>
        <stop offset="0.629562" stop-color="#3584e4"/>
        <stop offset="0.806679" stop-color="#9141ac"/>
        <stop offset="1" stop-color="#e01b24"/>
    </linearGradient>
    <linearGradient id="c" gradientTransform="matrix(0.850575 0 0 1 8.637933 28.5)" gradientUnits="userSpaceOnUse" x1="20.5" x2="108.5" y1="205.5" y2="205.5">
        <stop offset="0" stop-color="#ffffff"/>
        <stop offset="1" stop-color="#33d17a"/>
    </linearGradient>
    <linearGradient id="d" gradientTransform="matrix(0.850575 0 0 1 9.637932 56.5)" gradientUnits="userSpaceOnUse" x1="20.5" x2="108.5" y1="205.5" y2="205.5">
        <stop offset="0"/>
        <stop offset="1" stop-color="#33d17a"/>
    </linearGradient>
    <path d="m 20.496094 16.496094 h 88 c 4.417968 0 8 3.582031 8 8 v 84 c 0 4.417968 -3.582032 8 -8 8 h -88 c -4.417969 0 -8 -3.582032 -8 -8 v -84 c 0 -4.417969 3.582031 -8 8 -8 z m 0 0" fill="url(#a)"/>
    <path d="m 20.496094 12.496094 h 88 c 4.417968 0 8 3.582031 8 8 v 79.09375 c 0 4.417968 -3.582032 8 -8 8 h -88 c -4.417969 0 -8 -3.582032 -8 -8 v -79.09375 c 0 -4.417969 3.582031 -8 8 -8 z m 0 0" fill="#3d3846"/>
    <g stroke="#241f31" stroke-linecap="round" stroke-linejoin="round">
        <path d="m 31.5 200 h 64 c 2.761719 0 5 2.460938 5 5.5 s -2.238281 5.5 -5 5.5 h -64 c -2.761719 0 -5 -2.460938 -5 -5.5 s 2.238281 -5.5 5 -5.5 z m 0 0" fill="url(#b)" transform="matrix(1 0 0 1 0 -172)"/>
        <path d="m 31.5 228.5 h 64 c 2.761719 0 5 2.460938 5 5.5 s -2.238281 5.5 -5 5.5 h -64 c -2.761719 0 -5 -2.460938 -5 -5.5 s 2.238281 -5.5 5 -5.5 z m 0 0" fill="url(#c)" transform="matrix(1 0 0 1 0 -172)"/>
        <path d="m 32.5 256.5 h 64 c 2.761719 0 5 2.460938 5 5.5 s -2.238281 5.5 -5 5.5 h -64 c -2.761719 0 -5 -2.460938 -5 -5.5 s 2.238281 -5.5 5 -5.5 z m 0 0" fill="url(#d)" transform="matrix(1 0 0 1 0 -172)"/>
    </g>
    <path d="m 61.5 33 c 0 4.140625 -3.359375 7.5 -7.5 7.5 s -7.5 -3.359375 -7.5 -7.5 s 3.359375 -7.5 7.5 -7.5 s 7.5 3.359375 7.5 7.5 z m 0 0" fill="#9a9996"/>
    <path d="m 89.5 61 c 0 4.140625 -3.359375 7.5 -7.5 7.5 s -7.5 -3.359375 -7.5 -7.5 s 3.359375 -7.5 7.5 -7.5 s 7.5 3.359375 7.5 7.5 z m 0 0" fill="#9a9996"/>
    <path d="m 53.5 89 c 0 4.140625 -3.359375 7.5 -7.5 7.5 s -7.5 -3.359375 -7.5 -7.5 s 3.359375 -7.5 7.5 -7.5 s 7.5 3.359375 7.5 7.5 z m 0 0" fill="#9a9996"/>
    <path d="m 61.5 32 c 0 4.140625 -3.359375 7.5 -7.5 7.5 s -7.5 -3.359375 -7.5 -7.5 s 3.359375 -7.5 7.5 -7.5 s 7.5 3.359375 7.5 7.5 z m 0 0" fill="#deddda"/>
    <path d="m 89.5 60 c 0 4.140625 -3.359375 7.5 -7.5 7.5 s -7.5 -3.359375 -7.5 -7.5 s 3.359375 -7.5 7.5 -7.5 s 7.5 3.359375 7.5 7.5 z m 0 0" fill="#deddda"/>
    <path d="m 53.5 88 c 0 4.140625 -3.359375 7.5 -7.5 7.5 s -7.5 -3.359375 -7.5 -7.5 s 3.359375 -7.5 7.5 -7.5 s 7.5 3.359375 7.5 7.5 z m 0 0" fill="#deddda"/>
</svg>
