<?xml version="1.0" encoding="UTF-8"?>
<svg height="16px" viewBox="0 0 16 16" width="16px" xmlns="http://www.w3.org/2000/svg">
    <g fill="#241f31">
        <path d="m 3.332031 1 c -1.292969 0 -2.332031 1.039062 -2.332031 2.332031 v 9.335938 c 0 1.292969 1.039062 2.332031 2.332031 2.332031 h 9.335938 c 1.292969 0 2.332031 -1.039062 2.332031 -2.332031 v -9.335938 c 0 -1.292969 -1.039062 -2.332031 -2.332031 -2.332031 z m 0.667969 2 h 8 c 0.644531 0 1 0.355469 1 1 v 8 c 0 0.644531 -0.355469 1 -1 1 h -8 c -0.644531 0 -1 -0.355469 -1 -1 v -8 c 0 -0.644531 0.355469 -1 1 -1 z m 0 0"/>
        <path d="m 8 5 c 0 0.550781 -0.449219 1 -1 1 s -1 -0.449219 -1 -1 s 0.449219 -1 1 -1 s 1 0.449219 1 1 z m 0 0"/>
        <path d="m 7 11 c 0 0.550781 -0.449219 1 -1 1 s -1 -0.449219 -1 -1 s 0.449219 -1 1 -1 s 1 0.449219 1 1 z m 0 0"/>
        <path d="m 11 8 c 0 0.550781 -0.449219 1 -1 1 s -1 -0.449219 -1 -1 s 0.449219 -1 1 -1 s 1 0.449219 1 1 z m 0 0"/>
        <g fill-opacity="0.5">
            <path d="m 4.5 5 h 7 c 0.277344 0 0.5 0.222656 0.5 0.5 s -0.222656 0.5 -0.5 0.5 h -7 c -0.277344 0 -0.5 -0.222656 -0.5 -0.5 s 0.222656 -0.5 0.5 -0.5 z m 0 0"/>
            <path d="m 4.5 8 h 7.09375 c 0.273438 0 0.5 0.222656 0.5 0.5 v 0.011719 c 0 0.277343 -0.226562 0.5 -0.5 0.5 h -7.09375 c -0.277344 0 -0.5 -0.222657 -0.5 -0.5 v -0.011719 c 0 -0.277344 0.222656 -0.5 0.5 -0.5 z m 0 0"/>
            <path d="m 4.5 11 h 7 c 0.277344 0 0.5 0.222656 0.5 0.5 s -0.222656 0.5 -0.5 0.5 h -7 c -0.277344 0 -0.5 -0.222656 -0.5 -0.5 s 0.222656 -0.5 0.5 -0.5 z m 0 0"/>
        </g>
    </g>
</svg>
